M48
; DRILL file {KiCad 7.0.10} date Sun Jan 21 23:01:01 2024
; FORMAT={-:-/ absolute / metric / decimal}
; #@! TF.CreationDate,2024-01-21T23:01:01+08:00
; #@! TF.GenerationSoftware,Kicad,Pcbnew,7.0.10
; #@! TF.FileFunction,MixedPlating,1,2
FMAT,2
METRIC
; #@! TA.AperFunction,Plated,PTH,ViaDrill
T1C0.300
; #@! TA.AperFunction,Plated,PTH,ComponentDrill
T2C0.700
; #@! TA.AperFunction,Plated,PTH,ComponentDrill
T3C1.300
; #@! TA.AperFunction,NonPlated,NPTH,ComponentDrill
T4C0.580
; #@! TA.AperFunction,NonPlated,NPTH,ComponentDrill
T5C0.660
%
G90
G05
T1
X48.75Y-84.75
X48.75Y-89.25
X49.0Y-79.5
X50.5Y-78.0
X50.5Y-91.0
X52.0Y-79.5
X52.25Y-89.25
X52.5Y-84.25
X53.5Y-82.75
X54.4Y-85.5
X54.4Y-86.6
X54.4Y-87.6
X54.75Y-81.5
X55.6Y-85.5
X55.6Y-86.6
X55.6Y-87.6
X56.25Y-80.5
X58.0Y-82.75
X58.0Y-83.75
X58.0Y-84.75
X58.5Y-80.75
X59.0Y-82.75
X59.0Y-84.75
X59.5Y-80.75
X60.0Y-82.75
X60.0Y-83.75
X60.0Y-84.75
X60.5Y-87.75
X61.75Y-81.25
X61.75Y-91.25
X62.25Y-85.25
X62.5Y-83.0
X63.0Y-80.25
X63.175Y-79.025
X65.0Y-77.0
X66.5Y-80.0
X67.0Y-91.25
X68.0Y-80.0
X69.25Y-77.0
X69.5Y-80.0
X70.5Y-83.0
X71.0Y-89.5
X71.0Y-90.5
X72.25Y-89.5
X72.25Y-90.5
X73.5Y-89.5
X73.5Y-90.5
X74.5Y-86.0
T2
X48.43Y-81.85
X48.43Y-86.65
X52.73Y-81.85
X52.73Y-86.65
T3
X80.25Y-81.92
X80.25Y-87.0
T5
X50.58Y-88.0
T4
G00X50.58Y-80.71
M15
G01X50.58Y-80.29
M16
G05
M30
